<?xml version="1.0" encoding="UTF-8"?>
<svg version="1.1" xmlns="http://www.w3.org/2000/svg" width="809" height="308">
<path d="M0 0 C7.59 0 15.18 0 23 0 C26.37762332 9.00699552 26.37762332 9.00699552 27.7175293 13.15917969 C28.01761398 14.08664001 28.31769867 15.01410034 28.62687683 15.96966553 C29.09581108 17.43100922 29.09581108 17.43100922 29.57421875 18.921875 C29.90291458 19.94428284 30.23161041 20.96669067 30.57026672 22.02008057 C31.25963343 24.16781334 31.9478628 26.31591148 32.63500977 28.46435547 C33.68923207 31.75540715 34.75176528 35.04370489 35.81445312 38.33203125 C36.48488872 40.42431462 37.15482806 42.51675709 37.82421875 44.609375 C38.14291428 45.59170105 38.4616098 46.5740271 38.78996277 47.58612061 C39.08059097 48.50097229 39.37121918 49.41582397 39.6706543 50.35839844 C39.92807907 51.1603363 40.18550385 51.96227417 40.45072937 52.78851318 C41 55 41 55 41 59 C41.66 59 42.32 59 43 59 C43.13728516 57.63270752 43.13728516 57.63270752 43.27734375 56.23779297 C44.07143558 50.72178943 45.88076978 45.49275278 47.5625 40.1953125 C48.08952515 38.51572952 48.08952515 38.51572952 48.62719727 36.80221558 C49.36768351 34.44642758 50.11081966 32.09147107 50.85644531 29.73730469 C52.00203333 26.11857705 53.13836244 22.49703728 54.2734375 18.875 C54.99424918 16.58576662 55.71558487 14.29669815 56.4375 12.0078125 C56.77918213 10.91937042 57.12086426 9.83092834 57.47290039 8.70950317 C57.7899292 7.7111142 58.10695801 6.71272522 58.43359375 5.68408203 C58.71259521 4.80140656 58.99159668 3.91873108 59.27905273 3.00930786 C60 1 60 1 61 0 C62.70772358 -0.08713831 64.41898649 -0.10700007 66.12890625 -0.09765625 C67.68061523 -0.09282227 67.68061523 -0.09282227 69.26367188 -0.08789062 C70.35228516 -0.07951172 71.44089844 -0.07113281 72.5625 -0.0625 C74.2012207 -0.05573242 74.2012207 -0.05573242 75.87304688 -0.04882812 C78.58208495 -0.03699826 81.29101599 -0.02051543 84 0 C84.39391808 9.96258096 84.78527521 19.92525902 85.17345428 29.88806534 C85.35382189 34.51527023 85.53503796 39.1424385 85.71826172 43.76953125 C85.89538442 48.24336757 86.07018872 52.71728924 86.24345398 57.19127655 C86.30961776 58.88953571 86.37658627 60.58776374 86.44441223 62.28595734 C86.81311671 71.53132956 87.07810322 80.74476887 87 90 C82.05 90 77.1 90 72 90 C71.0800587 86.32023482 70.81241596 83.34710906 70.70288086 79.57910156 C70.6429319 77.62753143 70.6429319 77.62753143 70.58177185 75.63653564 C70.54270193 74.22123469 70.50372815 72.80593107 70.46484375 71.390625 C70.42181507 69.93901449 70.37839842 68.48741543 70.33460999 67.03582764 C70.22060164 63.22192768 70.11185697 59.40789518 70.00421143 55.59381104 C69.89335891 51.6991656 69.77752391 47.80466869 69.66210938 43.91015625 C69.43653232 36.27357408 69.21651637 28.63684501 69 21 C62.65404774 40.66262971 56.31810797 60.32840297 50 80 C44.72 80 39.44 80 34 80 C27.73 60.53 21.46 41.06 15 21 C14.3831622 39.96643437 14.3831622 39.96643437 13.77368164 58.93310547 C13.6944376 61.32780824 13.61494551 63.72250283 13.53515625 66.1171875 C13.47805481 67.95132202 13.47805481 67.95132202 13.4197998 69.82250977 C13.19079445 76.59149791 12.75990911 83.26937644 12 90 C7.05 90 2.1 90 -3 90 C-3.13232048 76.97966481 -2.68158778 63.99698907 -2.20043945 50.98632812 C-2.06332126 47.27224516 -1.9307437 43.55802101 -1.79882812 39.84375 C-1.32020419 26.55403638 -0.74434747 13.2775495 0 0 Z " fill="#052656" transform="translate(68,102)"/>
<path d="M0 0 C4.95 0 9.9 0 15 0 C15 31.02 15 62.04 15 94 C10.05 94 5.1 94 0 94 C-1.96822886 92.03177114 -1.66248381 88.65191291 -2 86 C-2.495 86.7425 -2.99 87.485 -3.5 88.25 C-7.84385878 93.02824466 -11.47583719 94.74290934 -17.796875 95.38671875 C-25.03173401 95.69476615 -32.16519489 95.82684607 -38 91 C-44.41185797 85.04507903 -47.65599358 77.96851137 -48.16113281 69.2043457 C-48.20685231 65.90695988 -48.23525355 62.61017594 -48.25 59.3125 C-48.2809375 57.6119043 -48.2809375 57.6119043 -48.3125 55.87695312 C-48.35613549 46.4135059 -47.28396797 37.47282677 -41 30 C-33.41550733 23.35379508 -27.74161355 22.52992868 -17.7109375 22.71875 C-9.93398579 23.30816108 -6.34227045 26.60922291 -1 32 C-1.00523682 31.06615479 -1.01047363 30.13230957 -1.01586914 29.17016602 C-1.0328762 25.71687204 -1.04543302 22.26362233 -1.05493164 18.81030273 C-1.05997121 17.31355082 -1.06680287 15.81680384 -1.07543945 14.32006836 C-1.08752159 12.17300193 -1.09323191 10.02600038 -1.09765625 7.87890625 C-1.10289307 6.5854126 -1.10812988 5.29191895 -1.11352539 3.95922852 C-1 1 -1 1 0 0 Z M-31 42 C-32.73802033 47.73921821 -33.35712938 52.95780024 -33.3125 58.9375 C-33.30686035 59.72729248 -33.3012207 60.51708496 -33.29541016 61.33081055 C-33.14069146 68.74888283 -32.24181612 74.10923711 -27.625 80.0625 C-22.87108291 83.50252041 -16.5276162 82.76048732 -11 82 C-6.49334232 79.86526742 -3.8258468 77.08177871 -1 73 C0.364255 68.907235 0.18423053 65.09877047 0.1875 60.8125 C0.20586914 59.5740332 0.20586914 59.5740332 0.22460938 58.31054688 C0.23995459 51.8195189 -0.35171874 45.96690627 -3.5625 40.1875 C-7.59466671 36.56888885 -12.33204234 35.38113681 -17.625 34.625 C-22.98506203 35.47132558 -27.77166754 37.57598886 -31 42 Z M-1 83 C0 85 0 85 0 85 Z " fill="#042657" transform="translate(323,98)"/>
<path d="M0 0 C1.83130004 4.15094676 1.08839606 9.49180073 1 14 C-2.77081828 13.34629975 -6.15623166 12.23628416 -9.75 10.9375 C-15.24608056 9.22036651 -20.22641709 8.5929045 -25.9375 8.5625 C-27.00145996 8.5478772 -27.00145996 8.5478772 -28.08691406 8.53295898 C-32.7648199 8.60871231 -36.0508295 9.4986625 -40 12 C-42.43522498 15.65283747 -42.55474367 18.74968452 -42 23 C-41.07231653 25.66895031 -40.3777967 26.75329066 -37.99609375 28.30859375 C-32.21491175 30.85937481 -26.44797932 32.80305012 -20.375 34.5 C-11.27992613 37.05957805 -3.40939324 39.72681033 2 48 C5.8072018 56.29260959 5.94110015 63.9426042 3.09765625 72.5390625 C0.02311121 79.43217059 -4.80262188 83.48988014 -11.69140625 86.30859375 C-26.12431404 90.63113974 -41.47577006 88.04392253 -55.37109375 83.16796875 C-57 82 -57 82 -57.828125 79.79296875 C-57.96734375 78.93316406 -58.1065625 78.07335937 -58.25 77.1875 C-58.39953125 76.33542969 -58.5490625 75.48335938 -58.703125 74.60546875 C-58.99496525 72.04418656 -59.05548207 69.57529259 -59 67 C-55.41523655 67.59518019 -52.14755914 68.63716338 -48.73388672 69.8671875 C-42.08047766 72.19907391 -35.94281732 73.48680798 -28.875 73.5 C-28.17729492 73.50588135 -27.47958984 73.5117627 -26.76074219 73.51782227 C-21.18031572 73.38215878 -16.96997456 71.96997456 -13 68 C-11.9647657 63.60220014 -11.52910167 59.44408822 -12.9375 55.125 C-18.04442772 49.8633169 -25.64010692 48.00401371 -32.5 46 C-42.80466236 42.9896492 -50.62006696 40.0132018 -57 31 C-60.16336335 24.94834836 -60.00792614 16.96531423 -58.34765625 10.43359375 C-55.88654217 4.19102542 -51.99432998 -0.06358528 -45.9453125 -2.99609375 C-32.15377937 -8.43464172 -12.84445879 -7.76641694 0 0 Z " fill="#042657" transform="translate(409,106)"/>
<path d="M0 0 C1.93166016 0.01740234 1.93166016 0.01740234 3.90234375 0.03515625 C5.19269531 0.04417969 6.48304688 0.05320312 7.8125 0.0625 C8.81152344 0.07410156 9.81054688 0.08570312 10.83984375 0.09765625 C11.7792267 7.66143642 11.96249383 15.1067313 11.90234375 22.72265625 C11.89783203 23.82222656 11.89332031 24.92179687 11.88867188 26.0546875 C11.87701514 28.73573628 11.86065392 31.41666557 11.83984375 34.09765625 C12.23671387 33.61409668 12.63358398 33.13053711 13.04248047 32.63232422 C13.83549561 31.68317139 13.83549561 31.68317139 14.64453125 30.71484375 C15.16515137 30.08690918 15.68577148 29.45897461 16.22216797 28.81201172 C19.98570601 24.82354747 25.0311441 23.32444566 30.35546875 22.89453125 C37.94474504 22.76442937 43.55928316 23.48811942 49.58984375 28.28515625 C54.72053876 34.69852501 56.97417945 41.03505298 56.95336914 49.25512695 C56.95329361 50.2557869 56.95321808 51.25644684 56.95314026 52.28742981 C56.94797897 53.35531235 56.94281769 54.42319489 56.9375 55.5234375 C56.93608505 56.62616501 56.9346701 57.72889252 56.93321228 58.86503601 C56.92762379 62.38010392 56.91507334 65.89510766 56.90234375 69.41015625 C56.89732727 71.79622304 56.89276462 74.18229082 56.88867188 76.56835938 C56.87765812 82.41148298 56.86040133 88.25455874 56.83984375 94.09765625 C51.88984375 94.09765625 46.93984375 94.09765625 41.83984375 94.09765625 C41.81011475 92.26775146 41.81011475 92.26775146 41.77978516 90.40087891 C41.70317915 85.83460343 41.61455061 81.26862399 41.52246094 76.70263672 C41.4843968 74.73394658 41.44950643 72.76519222 41.41796875 70.79638672 C41.37182385 67.95126534 41.31391594 65.10657758 41.25390625 62.26171875 C41.24235504 61.39463287 41.23080383 60.527547 41.21890259 59.63418579 C41.08502236 48.95156364 41.08502236 48.95156364 36.83984375 39.53515625 C32.41684384 36.35612506 28.15016681 36.40096664 22.83984375 37.09765625 C18.06141904 39.06895357 14.85290798 41.27093306 12.83984375 46.09765625 C12.52318895 48.38986853 12.52318895 48.38986853 12.53686523 50.8503418 C12.52022324 51.78778732 12.50358124 52.72523285 12.48643494 53.69108582 C12.47802078 54.69537125 12.46960663 55.69965668 12.4609375 56.734375 C12.44394302 57.76955765 12.42694855 58.8047403 12.40943909 59.87129211 C12.35632194 63.17585166 12.31600291 66.48039838 12.27734375 69.78515625 C12.23347077 73.10056304 12.1868434 76.41587067 12.13453674 79.7311554 C12.10248295 81.79438336 12.07562344 83.85769946 12.05430603 85.92106628 C12.04081619 86.84905533 12.02732635 87.77704437 12.01342773 88.7331543 C12.00391586 89.55381882 11.99440399 90.37448334 11.98460388 91.22001648 C11.83984375 93.09765625 11.83984375 93.09765625 10.83984375 94.09765625 C8.30934973 94.17079192 5.80679538 94.19013152 3.27734375 94.16015625 C2.56642578 94.15564453 1.85550781 94.15113281 1.12304688 94.14648438 C-0.63805638 94.13466489 -2.39911661 94.11672888 -4.16015625 94.09765625 C-4.18327803 81.98923681 -4.20107049 69.88082258 -4.21196842 57.7723856 C-4.21719761 52.15057663 -4.22429591 46.52878272 -4.2355957 40.90698242 C-4.24642331 35.48647348 -4.25243281 30.06597905 -4.25503349 24.64546013 C-4.25688797 22.5725068 -4.26050902 20.49955431 -4.26588631 18.42660713 C-4.27309505 15.53381732 -4.27414726 12.64108829 -4.27368164 9.74829102 C-4.27727692 8.88226761 -4.28087219 8.0162442 -4.28457642 7.12397766 C-4.27231503 0.13202457 -4.27231503 0.13202457 0 0 Z " fill="#042555" transform="translate(687.16015625,97.90234375)"/>
<path d="M0 0 C5.87890026 4.43387646 8.44152612 10.66216904 9.984375 17.71484375 C10.07202791 19.04733336 10.11494668 20.38338242 10.1171875 21.71875 C10.11912109 22.82959961 10.11912109 22.82959961 10.12109375 23.96289062 C10.11722656 24.72666016 10.11335937 25.49042969 10.109375 26.27734375 C10.11517578 27.42879883 10.11517578 27.42879883 10.12109375 28.60351562 C10.115356 31.89411514 10.03184531 34.57243282 8.984375 37.71484375 C-5.535625 38.04484375 -20.055625 38.37484375 -35.015625 38.71484375 C-33.29945557 46.76596012 -33.29945557 46.76596012 -28.015625 51.71484375 C-18.39408037 55.83836288 -8.46656033 53.98598496 1.07421875 50.6875 C3.71015243 49.80649666 6.25068149 49.19311425 8.984375 48.71484375 C8.950004 59.64482243 8.950004 59.64482243 5.671875 63.27734375 C-7.79286821 68.52631144 -21.37798228 69.84430588 -35.203125 64.96484375 C-42.42604398 61.75465754 -45.67302904 57.29689634 -49.0703125 50.27734375 C-51.3400492 44.12466907 -51.19854482 37.87413988 -51.203125 31.40234375 C-51.21537109 30.50322266 -51.22761719 29.60410156 -51.24023438 28.67773438 C-51.2627372 18.30393105 -49.62796494 9.76521998 -42.4140625 1.98828125 C-30.96899824 -8.62061393 -12.7131312 -8.10585303 0 0 Z M-31.828125 10.58984375 C-35.0738521 14.74880023 -35.0738521 14.74880023 -36.015625 25.71484375 C-25.785625 25.71484375 -15.555625 25.71484375 -5.015625 25.71484375 C-5.015625 17.92078649 -5.06339031 14.92756974 -10.140625 9.40234375 C-17.23169471 5.24019414 -25.06280423 6.0796299 -31.828125 10.58984375 Z " fill="#052656" transform="translate(545.015625,126.28515625)"/>
<path d="M0 0 C0.02535173 6.47785609 0.04286762 12.95569938 0.05493164 19.43359375 C0.05996088 21.63737466 0.06678505 23.84115222 0.07543945 26.04492188 C0.0875666 29.21224796 0.09324241 32.37952994 0.09765625 35.546875 C0.10281754 36.53242371 0.10797882 37.51797241 0.11329651 38.53338623 C0.11340981 39.91436493 0.11340981 39.91436493 0.11352539 41.32324219 C0.115746 42.1315448 0.11796661 42.93984741 0.12025452 43.77264404 C0.001452 45.97310595 -0.39025102 47.88748207 -1 50 C2.1063456 50 4.26212251 49.67145056 6.60546875 47.5390625 C7.76167072 46.19336425 8.89526682 44.82807402 10.01171875 43.44921875 C13.06526108 39.68778252 16.37657602 36.17146933 19.68359375 32.6328125 C21.98345553 30.16262262 21.98345553 30.16262262 23.41015625 27.7421875 C24.83094755 25.48536788 25.66777601 24.33524274 28 23 C33.40049002 22.41907079 38.59300592 22.59543869 44 23 C44 26.90371341 42.88498909 27.56247618 40.25 30.375 C39.4353125 31.25414062 38.620625 32.13328125 37.78125 33.0390625 C37.33523438 33.51375977 36.88921875 33.98845703 36.4296875 34.47753906 C34.38136157 36.65878231 32.35009403 38.85562997 30.31933594 41.05322266 C29.29884383 42.15658609 28.27617127 43.25793822 27.25097656 44.35693359 C24.0422336 47.81026509 20.98998075 51.35527893 18 55 C19.50390126 58.36256898 21.45252902 60.93029442 23.8125 63.75 C24.6065625 64.70648438 25.400625 65.66296875 26.21875 66.6484375 C26.65832031 67.17663086 27.09789062 67.70482422 27.55078125 68.24902344 C30.32838812 71.60498646 33.06773145 74.99217445 35.8125 78.375 C36.36333252 79.05272461 36.91416504 79.73044922 37.48168945 80.42871094 C38.5215495 81.7085875 39.55980914 82.98976661 40.59619141 84.27246094 C41.84579452 85.8102334 43.1149351 87.33208285 44.38671875 88.8515625 C46 91 46 91 46 93 C31.17205061 95.05535932 31.17205061 95.05535932 26.27734375 91.88378906 C23.06815327 88.73236401 20.7516138 84.92670454 18.38330078 81.12744141 C15.88439935 77.28426685 12.99832588 73.75399705 10.125 70.1875 C9.5889917 69.48818359 9.0529834 68.78886719 8.50073242 68.06835938 C7.98744385 67.42060547 7.47415527 66.77285156 6.9453125 66.10546875 C6.49687988 65.52949951 6.04844727 64.95353027 5.58642578 64.36010742 C3.504644 62.57531113 1.67889852 62.35385409 -1 62 C-0.94670532 63.35532837 -0.94670532 63.35532837 -0.89233398 64.73803711 C-0.76338203 68.07937816 -0.63902513 71.42082359 -0.51782227 74.76245117 C-0.46433763 76.21076301 -0.40900341 77.65900775 -0.35180664 79.10717773 C-0.27007488 81.18458582 -0.19492232 83.2621417 -0.12109375 85.33984375 C-0.0739624 86.59144287 -0.02683105 87.84304199 0.02172852 89.13256836 C0 92 0 92 -1 93 C-5.95 93 -10.9 93 -16 93 C-16 62.31 -16 31.62 -16 0 C-3 -1 -3 -1 0 0 Z " fill="#042556" transform="translate(442,99)"/>
<path d="M0 0 C5.25853377 4.71706098 8.69422184 9.36581416 9.17312622 16.62379456 C9.23144593 19.88387315 9.22457349 23.13796375 9.1953125 26.3984375 C9.1924826 27.58853424 9.18965271 28.77863098 9.18673706 30.00479126 C9.17556817 33.79496437 9.15046917 37.58489866 9.125 41.375 C9.11496597 43.94921533 9.10584085 46.52343438 9.09765625 49.09765625 C9.07563954 55.39852911 9.04113191 61.6992241 9 68 C4.05 68 -0.9 68 -6 68 C-6.01458252 66.54706543 -6.02916504 65.09413086 -6.04418945 63.59716797 C-6.10225118 58.19604129 -6.17948439 52.79532805 -6.26245117 47.39453125 C-6.29566333 45.05898763 -6.32370676 42.72336447 -6.34643555 40.38769531 C-6.38004901 37.02634855 -6.43237003 33.66572831 -6.48828125 30.3046875 C-6.49467117 29.26384003 -6.5010611 28.22299255 -6.50764465 27.15060425 C-6.61736419 21.71531458 -6.88753319 17.66798141 -10 13 C-14.15089483 10.01170019 -19.10609448 10.50441463 -24 11 C-29.36787898 12.88869816 -32.45991584 15.91983169 -35 21 C-35.11805177 22.5107757 -35.17696449 24.02638831 -35.20532227 25.54150391 C-35.22526749 26.48232819 -35.24521271 27.42315247 -35.26576233 28.39248657 C-35.29083107 29.91910416 -35.29083107 29.91910416 -35.31640625 31.4765625 C-35.33718735 32.51694672 -35.35796844 33.55733093 -35.37937927 34.62924194 C-35.44489872 37.96109249 -35.50377092 41.2930235 -35.5625 44.625 C-35.60568294 46.88021674 -35.64929715 49.13542527 -35.69335938 51.390625 C-35.80058258 56.92700033 -35.90184329 62.4634568 -36 68 C-40.95 68 -45.9 68 -51 68 C-51 45.23 -51 22.46 -51 -1 C-46.05 -1 -41.1 -1 -36 -1 C-35.67 1.64 -35.34 4.28 -35 7 C-34.2265625 5.88625 -34.2265625 5.88625 -33.4375 4.75 C-25.61436893 -4.07609659 -10.12032669 -6.55100717 0 0 Z " fill="#042657" transform="translate(253,124)"/>
<path d="M0 0 C0.02740022 1.85408125 0.04657422 3.70828469 0.0625 5.5625 C0.07410156 6.59503906 0.08570313 7.62757812 0.09765625 8.69140625 C0 12 0 12 -1 19 C7.91 19 16.82 19 26 19 C25.67 23.29 25.34 27.58 25 32 C16.75 32 8.5 32 0 32 C0.07394609 37.5000593 0.15672273 42.99847534 0.26245117 48.49780273 C0.29572002 50.36881014 0.32374585 52.23991838 0.34643555 54.11108398 C0.37994588 56.79975383 0.43225865 59.48749798 0.48828125 62.17578125 C0.49467117 63.01337479 0.5010611 63.85096832 0.50764465 64.71394348 C0.47390284 69.01510228 0.47390284 69.01510228 2.40202332 72.68254089 C6.62787817 76.16656604 11.78541905 75.29426113 17 75 C20.0730858 74.4936893 22.98214641 73.79156816 26 73 C26.05410687 74.77049689 26.09284119 76.54146849 26.125 78.3125 C26.14820313 79.29863281 26.17140625 80.28476563 26.1953125 81.30078125 C26 84 26 84 24 87 C18.68116145 89.01912597 13.71389298 89.36546178 8.0625 89.375 C7.30259766 89.39949219 6.54269531 89.42398438 5.75976562 89.44921875 C-1.44726693 89.48614633 -6.57152158 87.21730638 -11.875 82.375 C-17.81834691 72.93556667 -16.23345432 60.61402392 -16.125 49.875 C-16.11495032 48.13802599 -16.10582798 46.40104636 -16.09765625 44.6640625 C-16.07579974 40.4425675 -16.04137951 36.22134693 -16 32 C-19.3 32 -22.6 32 -26 32 C-26 27.71 -26 23.42 -26 19 C-22.7 18.67 -19.4 18.34 -16 18 C-16 12.72 -16 7.44 -16 2 C-13.78303494 0.89151747 -12.14459226 0.69766271 -9.6875 0.4375 C-8.92824219 0.35371094 -8.16898438 0.26992187 -7.38671875 0.18359375 C-4.91488969 -0.00654695 -2.47812859 -0.03070248 0 0 Z " fill="#052655" transform="translate(586,104)"/>
<path d="M0 0 C1.74954507 2.42839063 1.75158676 4.44494372 1.92578125 7.40625 C2.02439453 8.89705078 2.02439453 8.89705078 2.125 10.41796875 C2.18107422 11.55685547 2.18107422 11.55685547 2.23828125 12.71875 C-0.93143531 12.15874862 -3.33552309 11.46708143 -6.32421875 10.15625 C-12.77443537 7.67163145 -19.84071304 7.69383571 -26.32421875 9.96875 C-30.59031958 13.03159162 -32.26631628 15.93503963 -33.41015625 21.12109375 C-34.61867278 30.0506881 -35.14227528 40.54388243 -30.76171875 48.71875 C-25.78600492 53.05926632 -21.5387674 54.01802666 -15.04296875 53.9453125 C-10.7745683 53.52139602 -6.80258192 52.09948381 -2.76171875 50.71875 C-0.76171875 50.05208333 1.23828125 49.38541667 3.23828125 48.71875 C3.03834285 53.54307001 2.64184702 58.08484011 1.23828125 62.71875 C-1.49146996 65.20380239 -4.18715911 65.9991578 -7.76171875 66.71875 C-8.55578125 66.90308594 -9.34984375 67.08742188 -10.16796875 67.27734375 C-20.32387932 69.00568395 -30.71796167 68.09796139 -39.57421875 62.59375 C-45.3026502 58.10828009 -48.49254395 50.75437564 -49.76171875 43.71875 C-50.06853154 39.61133491 -50.08640766 35.52366426 -50.07421875 31.40625 C-50.09033203 30.32923828 -50.10644531 29.25222656 -50.12304688 28.14257812 C-50.12860792 18.96128916 -48.95723376 9.89250422 -42.76171875 2.71875 C-31.02432435 -6.93096556 -12.8736189 -9.36263193 0 0 Z " fill="#052656" transform="translate(669.76171875,126.28125)"/>
<path d="M0 0 C1.1859375 0.00257812 2.371875 0.00515625 3.59375 0.0078125 C4.7796875 0.00523438 5.965625 0.00265625 7.1875 0 C10.09375 0.1328125 10.09375 0.1328125 11.09375 1.1328125 C11.18800595 3.28024799 11.21117648 5.43082276 11.20727539 7.58032227 C11.20742142 8.25346466 11.20756744 8.92660706 11.2077179 9.62014771 C11.20701878 11.85487034 11.19922652 14.0895106 11.19140625 16.32421875 C11.18954206 17.86978612 11.18811816 19.41535407 11.18711853 20.96092224 C11.1832934 25.03638327 11.17346317 29.11180887 11.16241455 33.18725586 C11.15220032 37.34293132 11.14762089 41.49861249 11.14257812 45.65429688 C11.13184089 53.81382018 11.11424414 61.97330786 11.09375 70.1328125 C6.14375 70.1328125 1.19375 70.1328125 -3.90625 70.1328125 C-3.92880299 61.15360144 -3.94716622 52.17440905 -3.95806217 43.19517612 C-3.96329051 39.02618422 -3.97038726 34.85721263 -3.98168945 30.68823242 C-3.99252008 26.66823564 -3.99852721 22.64825845 -4.00112724 18.62824821 C-4.00298118 17.09118275 -4.00660119 15.55411841 -4.01198006 14.01706123 C-4.01919284 11.87145763 -4.02024084 9.72593595 -4.01977539 7.58032227 C-4.021996 6.35676529 -4.02421661 5.13320831 -4.02650452 3.87257385 C-3.86053526 0.09129252 -3.80239196 0.17376522 0 0 Z " fill="#032758" transform="translate(174.90625,121.8671875)"/>
<path d="M0 0 C2.5625 1.5 2.5625 1.5 4 4 C4.7099846 8.9698922 4.79117716 10.84919686 1.9375 15 C-1.76272533 17.51930235 -3.6031656 17.7066341 -8 17 C-11.06708139 15.19975658 -12.58578006 13.9578836 -14 10.6875 C-14 6.91829974 -12.72046406 4.31348634 -11 1 C-7.53469791 -0.73265104 -3.78892965 -0.4643626 0 0 Z " fill="#062655" transform="translate(183,97)"/>
<path d="M0 0 C1.1859375 0.00257812 2.371875 0.00515625 3.59375 0.0078125 C4.7796875 0.00523438 5.965625 0.00265625 7.1875 0 C10.09375 0.1328125 10.09375 0.1328125 11.09375 1.1328125 C11.18800595 3.28024799 11.21117648 5.43082276 11.20727539 7.58032227 C11.20742142 8.25346466 11.20756744 8.92660706 11.2077179 9.62014771 C11.20701878 11.85487034 11.19922652 14.0895106 11.19140625 16.32421875 C11.18954206 17.86978612 11.18811816 19.41535407 11.18711853 20.96092224 C11.1832934 25.03638327 11.17346317 29.11180887 11.16241455 33.18725586 C11.15220032 37.34293132 11.14762089 41.49861249 11.14257812 45.65429688 C11.13184089 53.81382018 11.11424414 61.97330786 11.09375 70.1328125 C6.14375 70.1328125 1.19375 70.1328125 -3.90625 70.1328125 C-3.92880299 61.15360144 -3.94716622 52.17440905 -3.95806217 43.19517612 C-3.96329051 39.02618422 -3.97038726 34.85721263 -3.98168945 30.68823242 C-3.99252008 26.66823564 -3.99852721 22.64825845 -4.00112724 18.62824821 C-4.00298118 17.09118275 -4.00660119 15.55411841 -4.01198006 14.01706123 C-4.01919284 11.87145763 -4.02024084 9.72593595 -4.01977539 7.58032227 C-4.021996 6.35676529 -4.02421661 5.13320831 -4.02650452 3.87257385 C-3.86053526 0.09129252 -3.80239196 0.17376522 0 0 Z M-2.90625 4.1328125 C-2.90625 25.5828125 -2.90625 47.0328125 -2.90625 69.1328125 C1.38375 69.1328125 5.67375 69.1328125 10.09375 69.1328125 C10.1164376 61.85637466 10.13474368 54.57995649 10.14556217 47.30349064 C10.15075726 43.92391192 10.15779282 40.54435887 10.16918945 37.16479492 C10.18137633 33.27001275 10.18700609 29.37526658 10.19140625 25.48046875 C10.19656754 24.2801149 10.20172882 23.07976105 10.20704651 21.84303284 C10.20746542 15.51759796 9.93856522 9.40315383 9.09375 3.1328125 C7.46884046 3.10583061 5.84380367 3.08642493 4.21875 3.0703125 C3.31382812 3.05871094 2.40890625 3.04710938 1.4765625 3.03515625 C-0.9231085 2.97031993 -0.9231085 2.97031993 -2.90625 4.1328125 Z " fill="#11274A" transform="translate(174.90625,121.8671875)"/>
<path d="M0 0 C4.98737735 4.29946323 6.95709967 9.62163703 8 16 C8.08263667 17.71758657 8.11787873 19.43790288 8.11352539 21.1574707 C8.11344986 22.15813065 8.11337433 23.15879059 8.11329651 24.18977356 C8.10813522 25.2576561 8.10297394 26.32553864 8.09765625 27.42578125 C8.0962413 28.52850876 8.09482635 29.63123627 8.09336853 30.76737976 C8.08778004 34.28244767 8.07522959 37.79745141 8.0625 41.3125 C8.05748352 43.69856679 8.05292087 46.08463457 8.04882812 48.47070312 C8.03781437 54.31382673 8.02055758 60.15690249 8 66 C3.05 66 -1.9 66 -7 66 C-7 54.78 -7 43.56 -7 32 C-5.68 32.33 -4.36 32.66 -3 33 C-3.495 33.495 -3.495 33.495 -4 34 C-4.15888092 36.28988781 -4.25138073 38.58443441 -4.31640625 40.87890625 C-4.3475779 41.90889992 -4.3475779 41.90889992 -4.37937927 42.95970154 C-4.44494143 45.16052935 -4.50379015 47.36147975 -4.5625 49.5625 C-4.60567892 51.05144514 -4.649293 52.54037773 -4.69335938 54.02929688 C-4.8006293 57.68606553 -4.90187772 61.34297318 -5 65 C-1.04 65 2.92 65 7 65 C7 49.16 7 33.32 7 17 C6.34 17 5.68 17 5 17 C4.89042969 16.39671875 4.78085937 15.7934375 4.66796875 15.171875 C3.76879004 10.63942946 2.95774005 7.6299537 0 4 C0 2.68 0 1.36 0 0 Z " fill="#092347" transform="translate(736,126)"/>
<path d="M0 0 C0.515625 0.2475 1.03125 0.495 1.5625 0.75 C-0.63502201 2.54057349 -2.3524598 3.72165327 -5.0625 4.625 C-7.68587294 5.53039031 -7.68587294 5.53039031 -8.375 8.25 C-9.4375 10.75 -9.4375 10.75 -12.5625 12.0625 C-13.985625 12.4028125 -13.985625 12.4028125 -15.4375 12.75 C-15.7675 9.12 -16.0975 5.49 -16.4375 1.75 C-20.0675 2.08 -23.6975 2.41 -27.4375 2.75 C-27.7675 24.86 -28.0975 46.97 -28.4375 69.75 C-28.7675 69.75 -29.0975 69.75 -29.4375 69.75 C-29.4375 46.98 -29.4375 24.21 -29.4375 0.75 C-24.4875 0.75 -19.5375 0.75 -14.4375 0.75 C-14.1075 3.39 -13.7775 6.03 -13.4375 8.75 C-12.921875 8.0075 -12.40625 7.265 -11.875 6.5 C-8.73951736 2.9625324 -5.03851011 -0.51677027 0 0 Z " fill="#0B2145" transform="translate(231.4375,122.25)"/>
<path d="M0 0 C7.59 0 15.18 0 23 0 C26.52941176 9.41176471 26.52941176 9.41176471 27.6875 12.8125 C27.93886719 13.54082031 28.19023438 14.26914063 28.44921875 15.01953125 C29 17 29 17 29 20 C28.34 20 27.68 20 27 20 C26.34 19.01 25.68 18.02 25 17 C23.35 17.33 21.7 17.66 20 18 C20 17.34 20 16.68 20 16 C20.66 16 21.32 16 22 16 C22.19412181 14.52168779 22.38012131 13.04230684 22.5625 11.5625 C22.66691406 10.73878906 22.77132812 9.91507813 22.87890625 9.06640625 C22.91886719 8.38449219 22.95882812 7.70257813 23 7 C22.67 6.67 22.34 6.34 22 6 C22 4.35 22 2.7 22 1 C15.07 1 8.14 1 1 1 C1.07897099 7.11797738 1.07897099 7.11797738 1.18017578 13.2355957 C1.1851709 13.99960693 1.19016602 14.76361816 1.1953125 15.55078125 C1.21102295 16.72120972 1.21102295 16.72120972 1.22705078 17.9152832 C1 20 1 20 -1 23 C-0.67 15.41 -0.34 7.82 0 0 Z M15 17 C15.99 17.495 15.99 17.495 17 18 C17 18.66 17 19.32 17 20 C17.66 20 18.32 20 19 20 C19.33 24.29 19.66 28.58 20 33 C18.26453924 30.39680887 17.34824767 28.47732763 16.375 25.5625 C16.11460938 24.80066406 15.85421875 24.03882812 15.5859375 23.25390625 C15 21 15 21 15 17 Z " fill="#0B254B" transform="translate(68,102)"/>
<path d="M0 0 C0.74958984 0.01353516 1.49917969 0.02707031 2.27148438 0.04101562 C4.11879767 0.07631461 5.96574066 0.13012083 7.8125 0.1875 C7.8125 4.32531054 6.09740393 5.39669996 3.3125 8.375 C2.4771875 9.27605469 1.641875 10.17710937 0.78125 11.10546875 C0.1315625 11.79253906 -0.518125 12.47960937 -1.1875 13.1875 C-2.68747444 10.23797042 -3.98773567 7.27260827 -5.1875 4.1875 C-9.26714281 5.48905006 -9.26714281 5.48905006 -13.1875 7.1875 C-10.14108114 0.39164255 -7.29585064 -0.24850496 0 0 Z " fill="#042555" transform="translate(478.1875,121.8125)"/>
<path d="M0 0 C4.95 0 9.9 0 15 0 C15 26.4 15 52.8 15 80 C14.67 80 14.34 80 14 80 C13.67 54.26 13.34 28.52 13 2 C9.04 2 5.08 2 1 2 C0.67 1.34 0.34 0.68 0 0 Z " fill="#0F274F" transform="translate(323,98)"/>
<path d="M0 0 C0.66 0.33 1.32 0.66 2 1 C2 1.66 2 2.32 2 3 C2.66 3 3.32 3 4 3 C3.62875 3.9075 3.2575 4.815 2.875 5.75 C1.69203125 8.8208119 1.69203125 8.8208119 2.8125 10.9375 C3.204375 11.618125 3.59625 12.29875 4 13 C5.22157263 19.18265331 5.15215568 25.28007205 5 31.5625 C5.00644531 32.57763672 5.01289063 33.59277344 5.01953125 34.63867188 C4.81810502 41.98113764 4.81810502 41.98113764 2.41015625 44.97998047 C0.5 46.58984375 0.5 46.58984375 -1.40625 47.89428711 C-3.16162109 48.92327558 -3.16162109 48.92327558 -4 51 C-7.63 51 -11.26 51 -15 51 C-15 50.67 -15 50.34 -15 50 C-14.41992188 49.91363281 -13.83984375 49.82726562 -13.2421875 49.73828125 C-7.4114891 48.68952527 -4.11256846 47.31318155 0 43 C2.53146131 38.38634696 2.2978194 33.80816128 2.25 28.6875 C2.25773437 27.87087891 2.26546875 27.05425781 2.2734375 26.21289062 C2.24981826 18.80235311 1.29958464 12.25394129 -3 6 C-2.34 6 -1.68 6 -1 6 C-0.67 4.02 -0.34 2.04 0 0 Z " fill="#0C244A" transform="translate(320,130)"/>
<path d="M0 0 C3.4372166 -0.11604679 6.87393086 -0.18719508 10.3125 -0.25 C11.28896484 -0.28351563 12.26542969 -0.31703125 13.27148438 -0.3515625 C14.20927734 -0.36445313 15.14707031 -0.37734375 16.11328125 -0.390625 C16.97735596 -0.41157227 17.84143066 -0.43251953 18.73168945 -0.45410156 C21 0 21 0 22.80541992 1.89941406 C24 4 24 4 24 6 C24.66 6.33 25.32 6.66 26 7 C26 24.16 26 41.32 26 59 C25.67 59 25.34 59 25 59 C24.99120064 58.09917191 24.99120064 58.09917191 24.98222351 57.18014526 C24.91818783 50.91796652 24.83374178 44.65629685 24.73754883 38.39453125 C24.70433667 36.05898763 24.67629324 33.72336447 24.65356445 31.38769531 C24.61995099 28.02634855 24.56762997 24.66572831 24.51171875 21.3046875 C24.50532883 20.26384003 24.4989389 19.22299255 24.49235535 18.15060425 C24.38263581 12.71531458 24.11246681 8.66798141 21 4 C16.86342847 1.02201178 11.8796595 1.47662958 7 2 C3.58025081 3.28994793 3.58025081 3.28994793 1 5 C0.01 5.495 0.01 5.495 -1 6 C-0.67 4.02 -0.34 2.04 0 0 Z " fill="#0B2145" transform="translate(222,133)"/>
<path d="M0 0 C0.66 0.33 1.32 0.66 2 1 C2 1.66 2 2.32 2 3 C2.66 3 3.32 3 4 3 C4 3.66 4 4.32 4 5 C3.21625 5.061875 2.4325 5.12375 1.625 5.1875 C0.75875 5.455625 -0.1075 5.72375 -1 6 C-2.37466625 8.47636012 -2.37466625 8.47636012 -3 11 C-2.01 11.33 -1.02 11.66 0 12 C-0.97114746 13.18263428 -0.97114746 13.18263428 -1.96191406 14.38916016 C-4.7787393 18.63954546 -4.6025012 22.80689479 -4.609375 27.7734375 C-4.62591125 28.6971817 -4.64244751 29.6209259 -4.65948486 30.57266235 C-4.70785236 33.5068433 -4.72931083 36.44050638 -4.75 39.375 C-4.77816909 41.37111965 -4.80809782 43.36721529 -4.83984375 45.36328125 C-4.91360839 50.24214485 -4.96325178 55.12072286 -5 60 C-5.33 60 -5.66 60 -6 60 C-6.21736795 53.82576043 -6.41416568 47.65133383 -6.59204102 41.47583008 C-6.65541556 39.37571754 -6.72437923 37.27576584 -6.79907227 35.17602539 C-6.90554943 32.15536121 -6.99182121 29.1346864 -7.07421875 26.11328125 C-7.11157639 25.17664139 -7.14893402 24.24000153 -7.18742371 23.27497864 C-7.30149259 18.3142446 -7.24347938 15.05156909 -4 11 C-4.66 10.67 -5.32 10.34 -6 10 C-4.79157144 5.56909529 -3.48331435 3.01887244 0 0 Z " fill="#041540" transform="translate(704,126)"/>
<path d="M0 0 C3.58107881 3.10360163 4.88481413 5.40117409 6 10 C6.26868349 14.13453192 6.23248202 18.25673814 6.1953125 22.3984375 C6.1924826 23.58853424 6.18965271 24.77863098 6.18673706 26.00479126 C6.17556817 29.79496437 6.15046917 33.58489866 6.125 37.375 C6.11496597 39.94921533 6.10584085 42.52343438 6.09765625 45.09765625 C6.07563954 51.39852911 6.04113191 57.6992241 6 64 C1.71 64 -2.58 64 -7 64 C-7 63.67 -7 63.34 -7 63 C-3.04 63 0.92 63 5 63 C4.88197836 56.34297207 4.75774657 49.68610049 4.62768555 43.02929688 C4.5842977 40.76337866 4.54262551 38.49742693 4.50268555 36.23144531 C4.44507615 32.97971482 4.38135498 29.72815364 4.31640625 26.4765625 C4.29969376 25.45881744 4.28298126 24.44107239 4.26576233 23.39248657 C4.24581711 22.45166229 4.22587189 21.51083801 4.20532227 20.54150391 C4.18977798 19.71099518 4.1742337 18.88048645 4.15821838 18.02481079 C4.12234803 15.93121564 4.12234803 15.93121564 3 14 C2.77095376 12.03674651 2.54252131 10.07341413 2.3203125 8.109375 C1.88989286 5.2749042 1.00429784 2.67812758 0 0 Z " fill="#0B264B" transform="translate(256,128)"/>
<path d="M0 0 C0.33 0 0.66 0 1 0 C1.33 4.29 1.66 8.58 2 13 C2.33 13 2.66 13 3 13 C3.03738281 14.00160156 3.07476562 15.00320312 3.11328125 16.03515625 C3.35108348 27.27107148 3.35108348 27.27107148 8.6875 36.8125 C9.120625 37.204375 9.55375 37.59625 10 38 C10 38.66 10 39.32 10 40 C12.475 39.505 12.475 39.505 15 39 C15.33 39.99 15.66 40.98 16 42 C15.67 42.66 15.34 43.32 15 44 C9.73763283 42.60702045 7.01975295 39.30771674 4 35 C0.90881628 29.37858095 -0.13316915 23.83727744 -0.09765625 17.48046875 C-0.09443359 16.45888672 -0.09121094 15.43730469 -0.08789062 14.38476562 C-0.07951172 13.32966797 -0.07113281 12.27457031 -0.0625 11.1875 C-0.05798828 10.11306641 -0.05347656 9.03863281 -0.04882812 7.93164062 C-0.03707729 5.28770317 -0.02064787 2.64388048 0 0 Z " fill="#0B244A" transform="translate(275,147)"/>
<path d="M0 0 C2.47469738 1.6656617 4.32541812 2.97886839 6.25 5.1875 C6.25 5.8475 6.25 6.5075 6.25 7.1875 C3.03782373 6.83059153 2.25840601 6.19737324 0.1015625 3.6640625 C-3.49167806 0.54335768 -6.15708801 0.53546796 -10.6875 0.75 C-11.72293945 0.75870117 -11.72293945 0.75870117 -12.77929688 0.76757812 C-17.85949945 0.88796207 -22.68652785 1.39915747 -26.625 4.8125 C-26.99625 5.26625 -27.3675 5.72 -27.75 6.1875 C-28.74 5.8575 -29.73 5.5275 -30.75 5.1875 C-23.34633445 -3.08718503 -10.10538972 -4.90242884 0 0 Z " fill="#0B254A" transform="translate(313.75,122.8125)"/>
<path d="M0 0 C1.25425781 0.00902344 2.50851562 0.01804687 3.80078125 0.02734375 C4.75339844 0.03894531 5.70601563 0.05054687 6.6875 0.0625 C6.6875 1.0525 6.6875 2.0425 6.6875 3.0625 C4.92986328 2.97548828 4.92986328 2.97548828 3.13671875 2.88671875 C-6.26814463 2.56120431 -14.24169952 2.51477463 -22.3125 8.0625 C-25.41091732 11.08534616 -26.91521617 13.98708884 -28.3125 18.0625 C-28.9725 18.0625 -29.6325 18.0625 -30.3125 18.0625 C-29.34191504 12.11766713 -27.19965068 9.34592868 -22.53515625 5.5703125 C-15.66224135 0.90784299 -8.13458856 -0.07602419 0 0 Z " fill="#0F264C" transform="translate(381.3125,99.9375)"/>
<path d="M0 0 C0.10152799 6.7685324 0.03026944 13.30324864 -1 20 C-1.66 20 -2.32 20 -3 20 C-3 17.03 -3 14.06 -3 11 C-2.34 11 -1.68 11 -1 11 C-1 9.02 -1 7.04 -1 5 C-1.598125 5.165 -2.19625 5.33 -2.8125 5.5 C-5 6 -5 6 -8 6 C-8 5.34 -8 4.68 -8 4 C-8.99 3.67 -9.98 3.34 -11 3 C-11.99 2.34 -12.98 1.68 -14 1 C-12.60459859 0.82975495 -11.20865091 0.6639851 -9.8125 0.5 C-9.03519531 0.4071875 -8.25789062 0.314375 -7.45703125 0.21875 C-4.95763614 -0.00377166 -2.50786754 -0.03563577 0 0 Z " fill="#03214A" transform="translate(586,104)"/>
<path d="M0 0 C-0.03388701 10.776068 -0.03388701 10.776068 -2.33203125 13.6875 C-4.51215322 15.13030578 -6.36236245 16 -9 16 C-9 15.34 -9 14.68 -9 14 C-7.35 13.67 -5.7 13.34 -4 13 C-4.59892955 9.64599451 -5.67106842 7.50144503 -8 5 C-10.05676616 4.36969323 -10.05676616 4.36969323 -12 4 C-10.56570999 3.32645501 -9.12742943 2.66140299 -7.6875 2 C-6.88699219 1.62875 -6.08648438 1.2575 -5.26171875 0.875 C-3 0 -3 0 0 0 Z " fill="#052550" transform="translate(554,175)"/>
<path d="M0 0 C0.66 0.33 1.32 0.66 2 1 C1.27683594 1.76183594 1.27683594 1.76183594 0.5390625 2.5390625 C-3.1500393 6.55943059 -5.59135078 9.62152117 -7 15 C-7.66 15.66 -8.32 16.32 -9 17 C-9.04092937 19.33297433 -9.04241723 21.66705225 -9 24 C-9.33 24.33 -9.66 24.66 -10 25 C-10.15582303 26.34015221 -10.25044142 27.68758903 -10.31640625 29.03515625 C-10.37924805 30.24848633 -10.37924805 30.24848633 -10.44335938 31.48632812 C-10.48267578 32.33646484 -10.52199219 33.18660156 -10.5625 34.0625 C-10.60568359 34.91650391 -10.64886719 35.77050781 -10.69335938 36.65039062 C-10.79976702 38.76672037 -10.90041731 40.88333813 -11 43 C-11.33 43 -11.66 43 -12 43 C-12.0588996 39.68757688 -12.09389398 36.37529149 -12.125 33.0625 C-12.14175781 32.13630859 -12.15851563 31.21011719 -12.17578125 30.25585938 C-12.24915092 19.80068096 -10.67795624 11.35684231 -3.5625 3.390625 C-2.40985943 2.22488624 -1.20990075 1.10619497 0 0 Z " fill="#0B2347" transform="translate(506,125)"/>
<path d="M0 0 C0 4.28658859 -2.59315312 6.04380881 -5.4375 8.9375 C-10.00140647 13.25027203 -10.00140647 13.25027203 -12 19 C-12.66 19 -13.32 19 -14 19 C-14 19.99 -14 20.98 -14 22 C-17.69418201 23.231394 -20.2056261 22.64432764 -24 22 C-24.33 20.68 -24.66 19.36 -25 18 C-24.34 17.67 -23.68 17.34 -23 17 C-23 17.99 -23 18.98 -23 20 C-19.8936544 20 -17.73787749 19.67145056 -15.39453125 17.5390625 C-14.2461517 16.20246872 -13.12011744 14.84649347 -12.01171875 13.4765625 C-9.63519019 10.55089433 -7.11023669 7.77550255 -4.5625 5 C-3.69753906 4.05125 -2.83257812 3.1025 -1.94140625 2.125 C-0.98041016 1.073125 -0.98041016 1.073125 0 0 Z " fill="#0E264C" transform="translate(464,129)"/>
<path d="M0 0 C4.23269578 1.51167706 5.66268097 4.30552799 8 8 C9.14203398 9.77791249 9.14203398 9.77791249 11 11 C14.20138068 11.3636162 14.20138068 11.3636162 17.6875 11.1875 C18.86699219 11.16042969 20.04648437 11.13335937 21.26171875 11.10546875 C22.16535156 11.07066406 23.06898438 11.03585938 24 11 C23.67 10.01 23.34 9.02 23 8 C22.34 8 21.68 8 21 8 C21 7.34 21 6.68 21 6 C20.34 6 19.68 6 19 6 C19 5.34 19 4.68 19 4 C22.79379058 5.49041773 24.68343758 7.69062512 27 11 C27 11.66 27 12.32 27 13 C11.66905807 14.78612916 11.66905807 14.78612916 7.26416016 11.83837891 C4.45523764 9.00696251 0 4.07634684 0 0 Z " fill="#0A2447" transform="translate(461,179)"/>
<path d="M0 0 C0.33 0 0.66 0 1 0 C1.03738281 1.12277344 1.07476562 2.24554688 1.11328125 3.40234375 C1.211943 16.97412186 1.211943 16.97412186 7.375 28.5 C9.99609848 29.99777056 12.01532275 30.65889403 15 31 C15 31.33 15 31.66 15 32 C11.6875 32.6875 11.6875 32.6875 8 33 C6.3125 31.875 6.3125 31.875 5 30 C4.29875 29.195625 3.5975 28.39125 2.875 27.5625 C0.08810299 23.75374076 -0.125977 20.66022799 -0.09765625 16.015625 C-0.09443359 15.08105469 -0.09121094 14.14648438 -0.08789062 13.18359375 C-0.07951172 12.21550781 -0.07113281 11.24742187 -0.0625 10.25 C-0.05798828 9.26644531 -0.05347656 8.28289062 -0.04882812 7.26953125 C-0.03706483 4.84629209 -0.02062684 2.42317727 0 0 Z " fill="#0C244A" transform="translate(289,149)"/>
<path d="M0 0 C0.66 0.33 1.32 0.66 2 1 C1.58105469 1.91910156 1.16210938 2.83820313 0.73046875 3.78515625 C-1.45176546 8.87703607 -3.04083401 14.15373043 -4.6875 19.4375 C-5.00783203 20.45521484 -5.32816406 21.47292969 -5.65820312 22.52148438 C-6.44202365 25.01333172 -7.22253096 27.50616516 -8 30 C-8.66 28.68 -9.32 27.36 -10 26 C-9.01 24.515 -9.01 24.515 -8 23 C-7.22487528 20.35495762 -6.52174436 17.73810536 -5.875 15.0625 C-5.69324219 14.34642578 -5.51148438 13.63035156 -5.32421875 12.89257812 C-4.47914891 9.46464446 -4 6.55227969 -4 3 C-3.34 3 -2.68 3 -2 3 C-1.34 2.01 -0.68 1.02 0 0 Z " fill="#0F2C4D" transform="translate(137,117)"/>
<path d="M0 0 C0.66 0.33 1.32 0.66 2 1 C1.01 2.485 1.01 2.485 0 4 C-0.99 3.67 -1.98 3.34 -3 3 C-3.33 4.32 -3.66 5.64 -4 7 C-7.99795892 7.95619733 -11.70803922 8.1039592 -15.8125 8.0625 C-16.97394531 8.05347656 -18.13539063 8.04445312 -19.33203125 8.03515625 C-20.21246094 8.02355469 -21.09289062 8.01195312 -22 8 C-22 7.34 -22 6.68 -22 6 C-20.37191406 5.72736328 -20.37191406 5.72736328 -18.7109375 5.44921875 C-17.26553863 5.19580466 -15.82023082 4.94187075 -14.375 4.6875 C-13.30572266 4.51057617 -13.30572266 4.51057617 -12.21484375 4.33007812 C-7.66016908 3.515251 -4.14842016 2.12404095 0 0 Z " fill="#0B2346" transform="translate(671,175)"/>
<path d="M0 0 C3.32722441 0.5545374 6.1013913 1.24013043 9 3 C10.28446919 5.56893838 10.32977144 7.76576337 10.5625 10.625 C10.64628906 11.62789062 10.73007812 12.63078125 10.81640625 13.6640625 C10.87699219 14.43492187 10.93757812 15.20578125 11 16 C7.44920141 15.33758211 4.32542534 14.42518229 1 13 C3.49064888 12.31292445 5.37886292 12 8 12 C8 9.69 8 7.38 8 5 C6.02 4.34 4.04 3.68 2 3 C2 2.34 2 1.68 2 1 C1.34 0.67 0.68 0.34 0 0 Z " fill="#0F284A" transform="translate(661,123)"/>
<path d="M0 0 C0.33 0 0.66 0 1 0 C1.02505615 0.63091553 1.0501123 1.26183105 1.07592773 1.91186523 C1.19154137 4.75396825 1.31442316 7.59571083 1.4375 10.4375 C1.47681641 11.43072266 1.51613281 12.42394531 1.55664062 13.44726562 C1.59853516 14.39150391 1.64042969 15.33574219 1.68359375 16.30859375 C1.72025146 17.18314209 1.75690918 18.05769043 1.79467773 18.95874023 C1.78181066 20.9927402 1.78181066 20.9927402 3 22 C3.37086093 27.8410596 3.37086093 27.8410596 3 30 C2.01 30.66 1.02 31.32 0 32 C0 21.44 0 10.88 0 0 Z " fill="#031E47" transform="translate(439,115)"/>
<path d="M0 0 C0.33 0.66 0.66 1.32 1 2 C2.97888961 2.72693904 4.97954558 3.39816251 7 4 C7 4.99 7 5.98 7 7 C7.99 7.33 8.98 7.66 10 8 C9.67 12.29 9.34 16.58 9 21 C8.34 21 7.68 21 7 21 C7.03480469 20.33613281 7.06960938 19.67226562 7.10546875 18.98828125 C7.43378781 11.92660696 7.43378781 11.92660696 4 6 C1.72424136 4.46765585 -0.54489037 3.25071623 -3 2 C-2.01 1.34 -1.02 0.68 0 0 Z " fill="#09244A" transform="translate(390,153)"/>
<path d="M0 0 C2.97 0.99 5.94 1.98 9 3 C10.20568053 7.67201205 10.09382426 12.21496292 10 17 C6.76203778 13.32049748 5 8.94759086 5 4 C2.525 3.01 2.525 3.01 0 2 C0 1.34 0 0.68 0 0 Z " fill="#072751" transform="translate(400,103)"/>
<path d="M0 0 C3.44010975 0.68802195 6.12864076 1.32133453 9.3125 2.5625 C10.529375 3.036875 11.74625 3.51125 13 4 C10.8614515 6.1385485 9.86724686 6.42655063 7 7 C7 5.68 7 4.36 7 3 C5.68 3 4.36 3 3 3 C2.67 6.3 2.34 9.6 2 13 C1.67 13 1.34 13 1 13 C0.67 8.71 0.34 4.42 0 0 Z " fill="#0B2247" transform="translate(350,173)"/>
<path d="M0 0 C0.33 0 0.66 0 1 0 C1.99 3.3 2.98 6.6 4 10 C5.60875 10.020625 7.2175 10.04125 8.875 10.0625 C9.77992187 10.07410156 10.68484375 10.08570313 11.6171875 10.09765625 C14.0168585 10.16249257 14.0168585 10.16249257 16 9 C16.33 8.01 16.66 7.02 17 6 C17.66 6 18.32 6 19 6 C18.67 7.98 18.34 9.96 18 12 C12.72 12 7.44 12 2 12 C1.01 8.37 0.02 4.74 -1 1 C-0.67 0.67 -0.34 0.34 0 0 Z " fill="#0E244A" transform="translate(100,170)"/>
<path d="M0 0 C0 3 0 3 -1 6 C-4.78471818 7.26157273 -8.4870452 7.43873081 -12.4375 7.6875 C-13.5831543 7.77741211 -13.5831543 7.77741211 -14.75195312 7.86914062 C-21.68186464 8.30942221 -21.68186464 8.30942221 -25 6 C-23.84242188 5.96261719 -22.68484375 5.92523438 -21.4921875 5.88671875 C-19.95309439 5.82102575 -18.4140333 5.75457958 -16.875 5.6875 C-15.73417969 5.65366211 -15.73417969 5.65366211 -14.5703125 5.61914062 C-8.74964186 5.34316055 -4.26896621 4.26896621 0 0 Z " fill="#0A234A" transform="translate(396,174)"/>
<path d="M0 0 C12.13955312 0.83418267 12.13955312 0.83418267 18 3 C18.33 3.66 18.66 4.32 19 5 C18.18208984 4.76603516 18.18208984 4.76603516 17.34765625 4.52734375 C10.14393757 2.66792235 4.14377062 3.1217502 -3 5 C-2.01 3.35 -1.02 1.7 0 0 Z " fill="#0D264A" transform="translate(298,131)"/>
<path d="M0 0 C1.32 0.33 2.64 0.66 4 1 C3.34 1.66 2.68 2.32 2 3 C-0.73397322 7.10095984 -0.46413301 9.1266034 0 14 C1.0181874 16.76365152 1.90517415 17.90517415 4 20 C1.37955675 19.63855955 0.21547669 19.22262521 -1.6484375 17.296875 C-3.35958261 14.38891741 -3.20032985 12.82164856 -2.8125 9.5 C-2.66748047 8.09234375 -2.66748047 8.09234375 -2.51953125 6.65625 C-2.02010014 4.10276763 -1.28675862 2.24520846 0 0 Z " fill="#10254B" transform="translate(367,115)"/>
<path d="M0 0 C3.96 0 7.92 0 12 0 C12 0.99 12 1.98 12 3 C6.06 3.495 6.06 3.495 0 4 C0 2.68 0 1.36 0 0 Z " fill="#051947" transform="translate(172,122)"/>
<path d="M0 0 C0.99 0.33 1.98 0.66 3 1 C4.1875 3.5625 4.1875 3.5625 5 6 C8.35458155 6.76522801 8.35458155 6.76522801 12 7 C13.8354799 5.66621425 13.8354799 5.66621425 15 4 C15.66 4 16.32 4 17 4 C15.25 7.875 15.25 7.875 13 9 C8.9375144 9.38325336 6.6820487 9.40033293 3.125 7.3125 C0.80371652 4.78639739 0.28102914 3.37234971 0 0 Z " fill="#0D2245" transform="translate(169,105)"/>
<path d="M0 0 C-0.03388701 10.776068 -0.03388701 10.776068 -2.33203125 13.6875 C-4.51215322 15.13030578 -6.36236245 16 -9 16 C-9 15.34 -9 14.68 -9 14 C-7.35 13.67 -5.7 13.34 -4 13 C-4 12.34 -4 11.68 -4 11 C-3.34 11 -2.68 11 -2 11 C-2 8.03 -2 5.06 -2 2 C-2.99 1.67 -3.98 1.34 -5 1 C-3 0 -3 0 0 0 Z " fill="#0E2245" transform="translate(554,175)"/>
<path d="M0 0 C1.90845703 0.04060547 1.90845703 0.04060547 3.85546875 0.08203125 C5.31919922 0.13423828 5.31919922 0.13423828 6.8125 0.1875 C6.8125 0.5175 6.8125 0.8475 6.8125 1.1875 C5.94367188 1.28546875 5.07484375 1.3834375 4.1796875 1.484375 C-4.72692123 2.60886094 -4.72692123 2.60886094 -12.1875 7.1875 C-9.30598462 0.75950414 -7.13252432 -0.19630801 0 0 Z " fill="#071446" transform="translate(477.1875,121.8125)"/>
<path d="M0 0 C5.28 0 10.56 0 16 0 C16 0.66 16 1.32 16 2 C12.45049966 3.16306443 9.44176052 2.92365049 5.75 2.5625 C4.67234375 2.46066406 3.5946875 2.35882813 2.484375 2.25390625 C1.66453125 2.17011719 0.8446875 2.08632812 0 2 C0 1.34 0 0.68 0 0 Z " fill="#0D274B" transform="translate(517,121)"/>
<path d="M0 0 C3.52069985 0.58678331 5.71299843 1.35649921 9 3 C9 7.29 9 11.58 9 16 C8.67 16 8.34 16 8 16 C7.85304688 14.98679688 7.85304688 14.98679688 7.703125 13.953125 C6.6119289 7.0459088 6.6119289 7.0459088 2 2 C1.34 1.34 0.68 0.68 0 0 Z " fill="#0A2447" transform="translate(720,134)"/>
<path d="M0 0 C1.9451 2.91765 2.45276317 4.62537285 3 8 C3.99 8.33 4.98 8.66 6 9 C6 9.66 6 10.32 6 11 C6.99 11 7.98 11 9 11 C9.66 12.32 10.32 13.64 11 15 C6.35251543 13.67214726 3.40549846 11.14644287 1 7 C0.1875 3.125 0.1875 3.125 0 0 Z " fill="#081F44" transform="translate(571,176)"/>
<path d="M0 0 C2.02225194 3.0333779 2.99347524 5.61344489 4.125 9.0625 C4.47820312 10.12597656 4.83140625 11.18945312 5.1953125 12.28515625 C6 15 6 15 6 17 C5.34 17 4.68 17 4 17 C0.68341387 12.0251208 -0.38479461 5.96431647 0 0 Z " fill="#0C2347" transform="translate(97,123)"/>
<path d="M0 0 C4.21814817 3.9700218 7.61227103 8.30840284 11 13 C10.01 13 9.02 13 8 13 C7.67 11.68 7.34 10.36 7 9 C6.01 9 5.02 9 4 9 C2.47551369 6.0173094 1.06059933 3.181798 0 0 Z " fill="#0A2247" transform="translate(468,167)"/>
<path d="M0 0 C0.99 0.33 1.98 0.66 3 1 C2.45144652 5.571279 1.58255197 9.67435795 0 14 C-0.33 14 -0.66 14 -1 14 C-1.33 11.69 -1.66 9.38 -2 7 C-1.34 6.67 -0.68 6.34 0 6 C0 4.02 0 2.04 0 0 Z " fill="#0A274B" transform="translate(125,146)"/>
<path d="M0 0 C3.96 1.32 7.92 2.64 12 4 C12 4.33 12 4.66 12 5 C10.39620659 5.05416188 8.79188594 5.09286638 7.1875 5.125 C6.29417969 5.14820313 5.40085937 5.17140625 4.48046875 5.1953125 C2 5 2 5 -1 3 C-0.67 2.01 -0.34 1.02 0 0 Z " fill="#092349" transform="translate(372,135)"/>
<path d="M0 0 C6.6 0 13.2 0 20 0 C16.43494821 2.37670119 14.24185172 2.48110533 10 2.8125 C8.7625 2.92207031 7.525 3.03164062 6.25 3.14453125 C3 3 3 3 0 0 Z " fill="#0B2245" transform="translate(520,180)"/>
<path d="M0 0 C1.91635217 -0.05423638 3.83314925 -0.09289963 5.75 -0.125 C7.35101563 -0.15980469 7.35101563 -0.15980469 8.984375 -0.1953125 C11.92470106 -0.00487687 13.52361878 0.47329896 16 2 C9.84765625 2.87890625 9.84765625 2.87890625 8 3 C7.67 2.67 7.34 2.34 7 2 C4.67182036 1.63239269 2.3381615 1.29758419 0 1 C0 0.67 0 0.34 0 0 Z " fill="#092047" transform="translate(233,121)"/>
<path d="M0 0 C0.33 0 0.66 0 1 0 C1 2.64 1 5.28 1 8 C0.34 8 -0.32 8 -1 8 C-1.33 10.31 -1.66 12.62 -2 15 C-2.66 14.67 -3.32 14.34 -4 14 C-3.52188823 12.22888156 -3.0424722 10.45811517 -2.5625 8.6875 C-2.29566406 7.70136719 -2.02882813 6.71523437 -1.75390625 5.69921875 C-1.21920575 3.78482474 -0.62855462 1.88566385 0 0 Z " fill="#0F2548" transform="translate(125,113)"/>
<path d="M0 0 C6.75 0.75 6.75 0.75 9 3 C8.67 3.99 8.34 4.98 8 6 C3.545 4.02 3.545 4.02 -1 2 C-0.67 1.34 -0.34 0.68 0 0 Z " fill="#08234B" transform="translate(399,114)"/>
<path d="M0 0 C2.8503026 3.20945602 3.43451699 5.49988548 3.6875 9.75 C3.75324219 10.73484375 3.81898438 11.7196875 3.88671875 12.734375 C3.92410156 13.48203125 3.96148437 14.2296875 4 15 C3.67 14.01 3.34 13.02 3 12 C2.34 12 1.68 12 1 12 C1.020625 10.948125 1.04125 9.89625 1.0625 8.8125 C1.01103198 5.67295096 0.73482813 3.03116604 0 0 Z " fill="#0A2145" transform="translate(410,154)"/>
<path d="M0 0 C2 3 2 3 2 6 C2.99 6.33 3.98 6.66 5 7 C5.6875 9.0625 5.6875 9.0625 6 11 C5.01 11.33 4.02 11.66 3 12 C2.49166409 10.75336669 1.99368855 9.50250613 1.5 8.25 C1.2215625 7.55390625 0.943125 6.8578125 0.65625 6.140625 C0 4 0 4 0 0 Z " fill="#092248" transform="translate(89,138)"/>
<path d="M0 0 C-2.97 3.96 -2.97 3.96 -6 8 C-6 5.33333333 -6 2.66666667 -6 0 C-3 -1 -3 -1 0 0 Z " fill="#0D2449" transform="translate(487,123)"/>
<path d="M0 0 C-2.96008666 1.97339111 -3.73521446 2.23226556 -7.0625 2.4375 C-9.0115625 2.7159375 -9.0115625 2.7159375 -11 3 C-11.66 3.99 -12.32 4.98 -13 6 C-12.67 4.02 -12.34 2.04 -12 0 C-7.91556885 -1.53166168 -4.20544343 -0.63081652 0 0 Z " fill="#0A2451" transform="translate(183,99)"/>
<path d="M0 0 C1.65 0 3.3 0 5 0 C7 5.625 7 5.625 7 9 C5.83037314 7.69013727 4.66437056 6.3770374 3.5 5.0625 C2.8503125 4.33160156 2.200625 3.60070312 1.53125 2.84765625 C0 1 0 1 0 0 Z " fill="#08214D" transform="translate(453,170)"/>
<path d="M0 0 C1.63001953 0.01353516 1.63001953 0.01353516 3.29296875 0.02734375 C4.12441406 0.03894531 4.95585938 0.05054688 5.8125 0.0625 C5.8125 0.3925 5.8125 0.7225 5.8125 1.0625 C5.16023437 1.11148438 4.50796875 1.16046875 3.8359375 1.2109375 C-1.12029853 1.63492229 -5.51769451 2.21915573 -10.1875 4.0625 C-9.8575 3.0725 -9.5275 2.0825 -9.1875 1.0625 C-5.90230525 -0.03256492 -3.45086585 -0.03710608 0 0 Z " fill="#0B224C" transform="translate(714.1875,132.9375)"/>
<path d="M0 0 C0.66 0.33 1.32 0.66 2 1 C0.41871914 4.73757294 -1.18327099 8.36654198 -3 12 C-3.33 9.03 -3.66 6.06 -4 3 C-3.34 3 -2.68 3 -2 3 C-1.34 2.01 -0.68 1.02 0 0 Z " fill="#092042" transform="translate(137,117)"/>
<path d="M0 0 C0.66 0 1.32 0 2 0 C2.433125 1.093125 2.86625 2.18625 3.3125 3.3125 C4.49495641 6.09408793 5.60800043 8.06361939 8 10 C7.67 10.66 7.34 11.32 7 12 C0.29612756 4.88610478 0.29612756 4.88610478 0 0 Z " fill="#051E43" transform="translate(497,176)"/>
<path d="M0 0 C3.875 1.875 3.875 1.875 5 3 C5.07226502 4.85287502 5.0838122 6.70833878 5.0625 8.5625 C5.05347656 9.57441406 5.04445313 10.58632812 5.03515625 11.62890625 C5.02355469 12.41136719 5.01195312 13.19382813 5 14 C4.67 14 4.34 14 4 14 C3.81824219 12.98679688 3.81824219 12.98679688 3.6328125 11.953125 C3.46523438 11.06109375 3.29765625 10.1690625 3.125 9.25 C2.96257813 8.36828125 2.80015625 7.4865625 2.6328125 6.578125 C2.03203736 4.13052256 1.22002883 2.19400143 0 0 Z " fill="#0D2446" transform="translate(536,137)"/>
<path d="M0 0 C0.66 0.33 1.32 0.66 2 1 C1.40606618 2.29640378 0.79942011 3.58698839 0.1875 4.875 C-0.14894531 5.59429687 -0.48539062 6.31359375 -0.83203125 7.0546875 C-2 9 -2 9 -5 11 C-3.55049545 7.2089881 -1.84827434 3.6125362 0 0 Z " fill="#0B2447" transform="translate(411,175)"/>
<path d="M0 0 C2.64 0.33 5.28 0.66 8 1 C6.35 2.32 4.7 3.64 3 5 C2.01 4.34 1.02 3.68 0 3 C0 2.01 0 1.02 0 0 Z " fill="#072447" transform="translate(363,178)"/>
<path d="M0 0 C0.99 0 1.98 0 3 0 C1.515 5.445 1.515 5.445 0 11 C-0.33 11 -0.66 11 -1 11 C-1.0270043 9.54176788 -1.04639787 8.08339325 -1.0625 6.625 C-1.07410156 5.81289062 -1.08570313 5.00078125 -1.09765625 4.1640625 C-1 2 -1 2 0 0 Z " fill="#0C2349" transform="translate(291,137)"/>
<path d="M0 0 C1.2065625 0.0309375 1.2065625 0.0309375 2.4375 0.0625 C2.4375 2.7025 2.4375 5.3425 2.4375 8.0625 C0.4375 5.0625 0.4375 5.0625 0.4375 2.0625 C-0.8825 1.7325 -2.2025 1.4025 -3.5625 1.0625 C-2.5625 0.0625 -2.5625 0.0625 0 0 Z " fill="#14274A" transform="translate(583.5625,103.9375)"/>
<path d="M0 0 C2.97 0.99 5.94 1.98 9 3 C8.67 4.32 8.34 5.64 8 7 C8 6.34 8 5.68 8 5 C5.34771188 3.92474806 2.71631546 2.90543849 0 2 C0 1.34 0 0.68 0 0 Z " fill="#0D2746" transform="translate(400,103)"/>
<path d="M0 0 C0.33 0 0.66 0 1 0 C1.29296875 6.0546875 1.29296875 6.0546875 1 8 C0.01 8.66 -0.98 9.32 -2 10 C-2.33 9.01 -2.66 8.02 -3 7 C-2.34 7 -1.68 7 -1 7 C-0.67 4.69 -0.34 2.38 0 0 Z " fill="#0B254A" transform="translate(112,154)"/>
<path d="M0 0 C0.66 0.33 1.32 0.66 2 1 C-0.97 3.475 -0.97 3.475 -4 6 C-4.33 5.01 -4.66 4.02 -5 3 C-4.34 3 -3.68 3 -3 3 C-3 2.34 -3 1.68 -3 1 C-2.01 0.67 -1.02 0.34 0 0 Z " fill="#0B234C" transform="translate(470,140)"/>
<path d="M0 0 C1.32 0.33 2.64 0.66 4 1 C3.071875 2.1446875 3.071875 2.1446875 2.125 3.3125 C-0.05597052 5.99625809 -0.05597052 5.99625809 -2 9 C-1.51421457 5.87709365 -1.0013988 3.00419641 0 0 Z " fill="#0B2646" transform="translate(638,136)"/>
<path d="M0 0 C3.68754757 0.49831724 5.60490662 1.10067643 8 4 C7.01 4.495 7.01 4.495 6 5 C5.34 4.67 4.68 4.34 4 4 C4 3.34 4 2.68 4 2 C2.68 2.33 1.36 2.66 0 3 C0 2.01 0 1.02 0 0 Z " fill="#0E254C" transform="translate(727,122)"/>
<path d="M0 0 C2.12508244 3.18762365 2.5020163 5.26512223 3 9 C2.34 9 1.68 9 1 9 C1 7.35 1 5.7 1 4 C0.01 3.67 -0.98 3.34 -2 3 C-1.34 2.01 -0.68 1.02 0 0 Z " fill="#092045" transform="translate(94,113)"/>
<path d="M0 0 C1.98 0.99 1.98 0.99 4 2 C3.01 4.31 2.02 6.62 1 9 C0.67 9 0.34 9 0 9 C0 6.03 0 3.06 0 0 Z " fill="#052145" transform="translate(570,106)"/>
<path d="" fill="#000000" transform="translate(0,0)"/>
<path d="" fill="#000000" transform="translate(0,0)"/>
<path d="" fill="#000000" transform="translate(0,0)"/>
<path d="" fill="#000000" transform="translate(0,0)"/>
<path d="" fill="#000000" transform="translate(0,0)"/>
<path d="" fill="#000000" transform="translate(0,0)"/>
<path d="" fill="#000000" transform="translate(0,0)"/>
<path d="" fill="#000000" transform="translate(0,0)"/>
</svg>
